<svg xmlns="http://www.w3.org/2000/svg" width="1400" height="1000" viewBox="0 0 1400 1000">
<rect width="100%" height="100%" fill="#10151c"/>
<style>text{font-family:Segoe UI,Arial,sans-serif;fill:#e6edf3}.axis{stroke:#8b949e;stroke-width:1}.grid{stroke:#52606d;stroke-opacity:.3}.orange{stroke:#ff9f43}.green{stroke:#55efc4}</style>
<text x="700" y="48" text-anchor="middle" font-size="28" font-weight="700">Vanilla XP vs Steady XP (40 XP per level)</text>
<rect x="70" y="70" width="1290" height="410" rx="12" fill="#151d27"/>
<text x="700" y="103" text-anchor="middle" font-size="20" font-weight="600">Total XP required to reach each level</text>
<line class="grid" x1="115.0" y1="115" x2="115.0" y2="430"/><text x="115.0" y="455" text-anchor="middle" font-size="12">0</text>
<line class="grid" x1="196.0" y1="115" x2="196.0" y2="430"/><text x="196.0" y="455" text-anchor="middle" font-size="12">10</text>
<line class="grid" x1="277.0" y1="115" x2="277.0" y2="430"/><text x="277.0" y="455" text-anchor="middle" font-size="12">20</text>
<line class="grid" x1="358.0" y1="115" x2="358.0" y2="430"/><text x="358.0" y="455" text-anchor="middle" font-size="12">30</text>
<line class="grid" x1="439.0" y1="115" x2="439.0" y2="430"/><text x="439.0" y="455" text-anchor="middle" font-size="12">40</text>
<line class="grid" x1="520.0" y1="115" x2="520.0" y2="430"/><text x="520.0" y="455" text-anchor="middle" font-size="12">50</text>
<line class="grid" x1="601.0" y1="115" x2="601.0" y2="430"/><text x="601.0" y="455" text-anchor="middle" font-size="12">60</text>
<line class="grid" x1="682.0" y1="115" x2="682.0" y2="430"/><text x="682.0" y="455" text-anchor="middle" font-size="12">70</text>
<line class="grid" x1="763.0" y1="115" x2="763.0" y2="430"/><text x="763.0" y="455" text-anchor="middle" font-size="12">80</text>
<line class="grid" x1="844.0" y1="115" x2="844.0" y2="430"/><text x="844.0" y="455" text-anchor="middle" font-size="12">90</text>
<line class="grid" x1="925.0" y1="115" x2="925.0" y2="430"/><text x="925.0" y="455" text-anchor="middle" font-size="12">100</text>
<line class="grid" x1="1005.9999999999999" y1="115" x2="1005.9999999999999" y2="430"/><text x="1005.9999999999999" y="455" text-anchor="middle" font-size="12">110</text>
<line class="grid" x1="1087.0" y1="115" x2="1087.0" y2="430"/><text x="1087.0" y="455" text-anchor="middle" font-size="12">120</text>
<line class="grid" x1="1168.0" y1="115" x2="1168.0" y2="430"/><text x="1168.0" y="455" text-anchor="middle" font-size="12">130</text>
<line class="grid" x1="1249.0" y1="115" x2="1249.0" y2="430"/><text x="1249.0" y="455" text-anchor="middle" font-size="12">140</text>
<line class="grid" x1="1330.0" y1="115" x2="1330.0" y2="430"/><text x="1330.0" y="455" text-anchor="middle" font-size="12">150</text>
<line class="grid" x1="115" y1="430.0" x2="1330" y2="430.0"/><text x="103" y="434.0" text-anchor="end" font-size="12">0</text>
<line class="grid" x1="115" y1="367.0" x2="1330" y2="367.0"/><text x="103" y="371.0" text-anchor="end" font-size="12">18,000</text>
<line class="grid" x1="115" y1="304.0" x2="1330" y2="304.0"/><text x="103" y="308.0" text-anchor="end" font-size="12">36,000</text>
<line class="grid" x1="115" y1="241.0" x2="1330" y2="241.0"/><text x="103" y="245.0" text-anchor="end" font-size="12">54,000</text>
<line class="grid" x1="115" y1="178.0" x2="1330" y2="178.0"/><text x="103" y="182.0" text-anchor="end" font-size="12">72,000</text>
<line class="grid" x1="115" y1="115.0" x2="1330" y2="115.0"/><text x="103" y="119.0" text-anchor="end" font-size="12">90,000</text>
<polyline points="115.0,430.0 123.1,430.0 131.2,429.9 139.3,429.9 147.4,429.9 155.5,429.8 163.6,429.7 171.7,429.7 179.8,429.6 187.9,429.5 196.0,429.4 204.1,429.3 212.2,429.2 220.3,429.1 228.4,429.0 236.5,428.9 244.6,428.8 252.7,428.6 260.8,428.5 268.9,428.3 277.0,428.1 285.1,427.9 293.2,427.6 301.3,427.4 309.4,427.1 317.5,426.8 325.6,426.5 333.7,426.2 341.8,425.8 349.9,425.5 358.0,425.1 366.1,424.7 374.2,424.3 382.3,423.8 390.4,423.4 398.5,422.8 406.6,422.3 414.7,421.7 422.8,421.1 430.9,420.5 439.0,419.8 447.1,419.1 455.2,418.3 463.3,417.6 471.4,416.8 479.5,415.9 487.6,415.1 495.7,414.2 503.8,413.2 511.9,412.3 520.0,411.3 528.1,410.3 536.2,409.2 544.3,408.1 552.4,407.0 560.5,405.9 568.6,404.7 576.7,403.5 584.8,402.2 592.9,401.0 601.0,399.7 609.1,398.3 617.2,396.9 625.3,395.5 633.4,394.1 641.5,392.7 649.6,391.2 657.7,389.6 665.8,388.1 673.9,386.5 682.0,384.9 690.1,383.2 698.2,381.5 706.3,379.8 714.4,378.1 722.5,376.3 730.6,374.5 738.7,372.6 746.8,370.8 754.9,368.9 763.0,366.9 771.1,365.0 779.2,363.0 787.3,360.9 795.4,358.9 803.5,356.8 811.6,354.7 819.7,352.5 827.8,350.3 835.9,348.1 844.0,345.8 852.1,343.6 860.2,341.2 868.3,338.9 876.4,336.5 884.5,334.1 892.6,331.7 900.7,329.2 908.8,326.7 916.9,324.2 925.0,321.6 933.1,319.0 941.2,316.4 949.3,313.7 957.4,311.0 965.5,308.3 973.6,305.6 981.7,302.8 989.8,299.9 997.9,297.1 1006.0,294.2 1014.1,291.3 1022.2,288.4 1030.3,285.4 1038.4,282.4 1046.5,279.3 1054.6,276.3 1062.7,273.2 1070.8,270.0 1078.9,266.9 1087.0,263.7 1095.1,260.5 1103.2,257.2 1111.3,253.9 1119.4,250.6 1127.5,247.2 1135.6,243.8 1143.7,240.4 1151.8,237.0 1159.9,233.5 1168.0,230.0 1176.1,226.5 1184.2,222.9 1192.3,219.3 1200.4,215.6 1208.5,212.0 1216.6,208.3 1224.7,204.5 1232.8,200.8 1240.9,197.0 1249.0,193.2 1257.1,189.3 1265.2,185.4 1273.3,181.5 1281.4,177.5 1289.5,173.6 1297.6,169.5 1305.7,165.5 1313.8,161.4 1321.9,157.3 1330.0,153.2" fill="none" class="orange" stroke-width="4"/>
<polyline points="115.0,430.0 123.1,429.9 131.2,429.7 139.3,429.6 147.4,429.4 155.5,429.3 163.6,429.2 171.7,429.0 179.8,428.9 187.9,428.7 196.0,428.6 204.1,428.5 212.2,428.3 220.3,428.2 228.4,428.0 236.5,427.9 244.6,427.8 252.7,427.6 260.8,427.5 268.9,427.3 277.0,427.2 285.1,427.1 293.2,426.9 301.3,426.8 309.4,426.6 317.5,426.5 325.6,426.4 333.7,426.2 341.8,426.1 349.9,425.9 358.0,425.8 366.1,425.7 374.2,425.5 382.3,425.4 390.4,425.2 398.5,425.1 406.6,425.0 414.7,424.8 422.8,424.7 430.9,424.5 439.0,424.4 447.1,424.3 455.2,424.1 463.3,424.0 471.4,423.8 479.5,423.7 487.6,423.6 495.7,423.4 503.8,423.3 511.9,423.1 520.0,423.0 528.1,422.9 536.2,422.7 544.3,422.6 552.4,422.4 560.5,422.3 568.6,422.2 576.7,422.0 584.8,421.9 592.9,421.7 601.0,421.6 609.1,421.5 617.2,421.3 625.3,421.2 633.4,421.0 641.5,420.9 649.6,420.8 657.7,420.6 665.8,420.5 673.9,420.3 682.0,420.2 690.1,420.1 698.2,419.9 706.3,419.8 714.4,419.6 722.5,419.5 730.6,419.4 738.7,419.2 746.8,419.1 754.9,418.9 763.0,418.8 771.1,418.7 779.2,418.5 787.3,418.4 795.4,418.2 803.5,418.1 811.6,418.0 819.7,417.8 827.8,417.7 835.9,417.5 844.0,417.4 852.1,417.3 860.2,417.1 868.3,417.0 876.4,416.8 884.5,416.7 892.6,416.6 900.7,416.4 908.8,416.3 916.9,416.1 925.0,416.0 933.1,415.9 941.2,415.7 949.3,415.6 957.4,415.4 965.5,415.3 973.6,415.2 981.7,415.0 989.8,414.9 997.9,414.7 1006.0,414.6 1014.1,414.5 1022.2,414.3 1030.3,414.2 1038.4,414.0 1046.5,413.9 1054.6,413.8 1062.7,413.6 1070.8,413.5 1078.9,413.3 1087.0,413.2 1095.1,413.1 1103.2,412.9 1111.3,412.8 1119.4,412.6 1127.5,412.5 1135.6,412.4 1143.7,412.2 1151.8,412.1 1159.9,411.9 1168.0,411.8 1176.1,411.7 1184.2,411.5 1192.3,411.4 1200.4,411.2 1208.5,411.1 1216.6,411.0 1224.7,410.8 1232.8,410.7 1240.9,410.5 1249.0,410.4 1257.1,410.3 1265.2,410.1 1273.3,410.0 1281.4,409.8 1289.5,409.7 1297.6,409.6 1305.7,409.4 1313.8,409.3 1321.9,409.1 1330.0,409.0" fill="none" class="green" stroke-width="4"/>
<text x="133" y="142" class="orange" font-size="15">● Vanilla</text><text x="235" y="142" class="green" font-size="15">● Steady XP</text>
<text x="28" y="272.5" transform="rotate(-90 28 272.5)" text-anchor="middle" font-size="14">Total XP from level 0</text>
<rect x="70" y="540" width="1290" height="410" rx="12" fill="#151d27"/>
<text x="700" y="573" text-anchor="middle" font-size="20" font-weight="600">XP needed to advance one level</text>
<line class="grid" x1="115.0" y1="585" x2="115.0" y2="900"/><text x="115.0" y="925" text-anchor="middle" font-size="12">0</text>
<line class="grid" x1="196.0" y1="585" x2="196.0" y2="900"/><text x="196.0" y="925" text-anchor="middle" font-size="12">10</text>
<line class="grid" x1="277.0" y1="585" x2="277.0" y2="900"/><text x="277.0" y="925" text-anchor="middle" font-size="12">20</text>
<line class="grid" x1="358.0" y1="585" x2="358.0" y2="900"/><text x="358.0" y="925" text-anchor="middle" font-size="12">30</text>
<line class="grid" x1="439.0" y1="585" x2="439.0" y2="900"/><text x="439.0" y="925" text-anchor="middle" font-size="12">40</text>
<line class="grid" x1="520.0" y1="585" x2="520.0" y2="900"/><text x="520.0" y="925" text-anchor="middle" font-size="12">50</text>
<line class="grid" x1="601.0" y1="585" x2="601.0" y2="900"/><text x="601.0" y="925" text-anchor="middle" font-size="12">60</text>
<line class="grid" x1="682.0" y1="585" x2="682.0" y2="900"/><text x="682.0" y="925" text-anchor="middle" font-size="12">70</text>
<line class="grid" x1="763.0" y1="585" x2="763.0" y2="900"/><text x="763.0" y="925" text-anchor="middle" font-size="12">80</text>
<line class="grid" x1="844.0" y1="585" x2="844.0" y2="900"/><text x="844.0" y="925" text-anchor="middle" font-size="12">90</text>
<line class="grid" x1="925.0" y1="585" x2="925.0" y2="900"/><text x="925.0" y="925" text-anchor="middle" font-size="12">100</text>
<line class="grid" x1="1005.9999999999999" y1="585" x2="1005.9999999999999" y2="900"/><text x="1005.9999999999999" y="925" text-anchor="middle" font-size="12">110</text>
<line class="grid" x1="1087.0" y1="585" x2="1087.0" y2="900"/><text x="1087.0" y="925" text-anchor="middle" font-size="12">120</text>
<line class="grid" x1="1168.0" y1="585" x2="1168.0" y2="900"/><text x="1168.0" y="925" text-anchor="middle" font-size="12">130</text>
<line class="grid" x1="1249.0" y1="585" x2="1249.0" y2="900"/><text x="1249.0" y="925" text-anchor="middle" font-size="12">140</text>
<line class="grid" x1="1330.0" y1="585" x2="1330.0" y2="900"/><text x="1330.0" y="925" text-anchor="middle" font-size="12">150</text>
<line class="grid" x1="115" y1="900.0" x2="1330" y2="900.0"/><text x="103" y="904.0" text-anchor="end" font-size="12">0</text>
<line class="grid" x1="115" y1="837.0" x2="1330" y2="837.0"/><text x="103" y="841.0" text-anchor="end" font-size="12">260</text>
<line class="grid" x1="115" y1="774.0" x2="1330" y2="774.0"/><text x="103" y="778.0" text-anchor="end" font-size="12">520</text>
<line class="grid" x1="115" y1="711.0" x2="1330" y2="711.0"/><text x="103" y="715.0" text-anchor="end" font-size="12">780</text>
<line class="grid" x1="115" y1="648.0" x2="1330" y2="648.0"/><text x="103" y="652.0" text-anchor="end" font-size="12">1,040</text>
<line class="grid" x1="115" y1="585.0" x2="1330" y2="585.0"/><text x="103" y="589.0" text-anchor="end" font-size="12">1,300</text>
<polyline points="115.0,898.3 123.1,897.8 131.2,897.3 139.3,896.9 147.4,896.4 155.5,895.9 163.6,895.4 171.7,894.9 179.8,894.4 187.9,893.9 196.0,893.5 204.1,893.0 212.2,892.5 220.3,892.0 228.4,891.5 236.5,891.0 244.6,889.8 252.7,888.6 260.8,887.4 268.9,886.2 277.0,885.0 285.1,883.8 293.2,882.6 301.3,881.3 309.4,880.1 317.5,878.9 325.6,877.7 333.7,876.5 341.8,875.3 349.9,874.1 358.0,872.9 366.1,870.7 374.2,868.5 382.3,866.3 390.4,864.1 398.5,862.0 406.6,859.8 414.7,857.6 422.8,855.4 430.9,853.2 439.0,851.1 447.1,848.9 455.2,846.7 463.3,844.5 471.4,842.3 479.5,840.1 487.6,838.0 495.7,835.8 503.8,833.6 511.9,831.4 520.0,829.2 528.1,827.1 536.2,824.9 544.3,822.7 552.4,820.5 560.5,818.3 568.6,816.2 576.7,814.0 584.8,811.8 592.9,809.6 601.0,807.4 609.1,805.3 617.2,803.1 625.3,800.9 633.4,798.7 641.5,796.5 649.6,794.4 657.7,792.2 665.8,790.0 673.9,787.8 682.0,785.6 690.1,783.5 698.2,781.3 706.3,779.1 714.4,776.9 722.5,774.7 730.6,772.5 738.7,770.4 746.8,768.2 754.9,766.0 763.0,763.8 771.1,761.6 779.2,759.5 787.3,757.3 795.4,755.1 803.5,752.9 811.6,750.7 819.7,748.6 827.8,746.4 835.9,744.2 844.0,742.0 852.1,739.8 860.2,737.7 868.3,735.5 876.4,733.3 884.5,731.1 892.6,728.9 900.7,726.8 908.8,724.6 916.9,722.4 925.0,720.2 933.1,718.0 941.2,715.8 949.3,713.7 957.4,711.5 965.5,709.3 973.6,707.1 981.7,704.9 989.8,702.8 997.9,700.6 1006.0,698.4 1014.1,696.2 1022.2,694.0 1030.3,691.9 1038.4,689.7 1046.5,687.5 1054.6,685.3 1062.7,683.1 1070.8,681.0 1078.9,678.8 1087.0,676.6 1095.1,674.4 1103.2,672.2 1111.3,670.0 1119.4,667.9 1127.5,665.7 1135.6,663.5 1143.7,661.3 1151.8,659.1 1159.9,657.0 1168.0,654.8 1176.1,652.6 1184.2,650.4 1192.3,648.2 1200.4,646.1 1208.5,643.9 1216.6,641.7 1224.7,639.5 1232.8,637.3 1240.9,635.2 1249.0,633.0 1257.1,630.8 1265.2,628.6 1273.3,626.4 1281.4,624.3 1289.5,622.1 1297.6,619.9 1305.7,617.7 1313.8,615.5 1321.9,613.3 1330.0,611.2" fill="none" class="orange" stroke-width="4"/>
<polyline points="115.0,890.3 123.1,890.3 131.2,890.3 139.3,890.3 147.4,890.3 155.5,890.3 163.6,890.3 171.7,890.3 179.8,890.3 187.9,890.3 196.0,890.3 204.1,890.3 212.2,890.3 220.3,890.3 228.4,890.3 236.5,890.3 244.6,890.3 252.7,890.3 260.8,890.3 268.9,890.3 277.0,890.3 285.1,890.3 293.2,890.3 301.3,890.3 309.4,890.3 317.5,890.3 325.6,890.3 333.7,890.3 341.8,890.3 349.9,890.3 358.0,890.3 366.1,890.3 374.2,890.3 382.3,890.3 390.4,890.3 398.5,890.3 406.6,890.3 414.7,890.3 422.8,890.3 430.9,890.3 439.0,890.3 447.1,890.3 455.2,890.3 463.3,890.3 471.4,890.3 479.5,890.3 487.6,890.3 495.7,890.3 503.8,890.3 511.9,890.3 520.0,890.3 528.1,890.3 536.2,890.3 544.3,890.3 552.4,890.3 560.5,890.3 568.6,890.3 576.7,890.3 584.8,890.3 592.9,890.3 601.0,890.3 609.1,890.3 617.2,890.3 625.3,890.3 633.4,890.3 641.5,890.3 649.6,890.3 657.7,890.3 665.8,890.3 673.9,890.3 682.0,890.3 690.1,890.3 698.2,890.3 706.3,890.3 714.4,890.3 722.5,890.3 730.6,890.3 738.7,890.3 746.8,890.3 754.9,890.3 763.0,890.3 771.1,890.3 779.2,890.3 787.3,890.3 795.4,890.3 803.5,890.3 811.6,890.3 819.7,890.3 827.8,890.3 835.9,890.3 844.0,890.3 852.1,890.3 860.2,890.3 868.3,890.3 876.4,890.3 884.5,890.3 892.6,890.3 900.7,890.3 908.8,890.3 916.9,890.3 925.0,890.3 933.1,890.3 941.2,890.3 949.3,890.3 957.4,890.3 965.5,890.3 973.6,890.3 981.7,890.3 989.8,890.3 997.9,890.3 1006.0,890.3 1014.1,890.3 1022.2,890.3 1030.3,890.3 1038.4,890.3 1046.5,890.3 1054.6,890.3 1062.7,890.3 1070.8,890.3 1078.9,890.3 1087.0,890.3 1095.1,890.3 1103.2,890.3 1111.3,890.3 1119.4,890.3 1127.5,890.3 1135.6,890.3 1143.7,890.3 1151.8,890.3 1159.9,890.3 1168.0,890.3 1176.1,890.3 1184.2,890.3 1192.3,890.3 1200.4,890.3 1208.5,890.3 1216.6,890.3 1224.7,890.3 1232.8,890.3 1240.9,890.3 1249.0,890.3 1257.1,890.3 1265.2,890.3 1273.3,890.3 1281.4,890.3 1289.5,890.3 1297.6,890.3 1305.7,890.3 1313.8,890.3 1321.9,890.3 1330.0,890.3" fill="none" class="green" stroke-width="4"/>
<text x="133" y="612" class="orange" font-size="15">● Vanilla</text><text x="235" y="612" class="green" font-size="15">● Steady XP</text>
<text x="28" y="742.5" transform="rotate(-90 28 742.5)" text-anchor="middle" font-size="14">XP for next level</text>
<text x="722" y="965" text-anchor="middle" font-size="15">Current level (0–150)</text>
<text x="970" y="270" font-size="15" fill="#e6edf3">Steady XP becomes cheaper overall at level 27</text>
<text x="500" y="745" font-size="15" fill="#e6edf3">Vanilla next-level cost passes 40 XP at level 16</text>
</svg>