<svg xmlns="http://www.w3.org/2000/svg" width="1400" height="1000" viewBox="0 0 1400 1000">
<rect width="100%" height="100%" fill="#10151c"/>
<style>text{font-family:Segoe UI,Arial,sans-serif;fill:#e6edf3}.axis{stroke:#8b949e;stroke-width:1}.grid{stroke:#52606d;stroke-opacity:.3}.orange{stroke:#ff9f43}.green{stroke:#55efc4}</style>
<text x="700" y="48" text-anchor="middle" font-size="28" font-weight="700">Vanilla XP vs Steady XP (30 XP per level)</text>
<rect x="70" y="70" width="1290" height="410" rx="12" fill="#151d27"/>
<text x="700" y="103" text-anchor="middle" font-size="20" font-weight="600">Total XP required to reach each level</text>
<line class="grid" x1="115.0" y1="115" x2="115.0" y2="430"/><text x="115.0" y="455" text-anchor="middle" font-size="12">0</text>
<line class="grid" x1="236.5" y1="115" x2="236.5" y2="430"/><text x="236.5" y="455" text-anchor="middle" font-size="12">5</text>
<line class="grid" x1="358.0" y1="115" x2="358.0" y2="430"/><text x="358.0" y="455" text-anchor="middle" font-size="12">10</text>
<line class="grid" x1="479.5" y1="115" x2="479.5" y2="430"/><text x="479.5" y="455" text-anchor="middle" font-size="12">15</text>
<line class="grid" x1="601.0" y1="115" x2="601.0" y2="430"/><text x="601.0" y="455" text-anchor="middle" font-size="12">20</text>
<line class="grid" x1="722.5" y1="115" x2="722.5" y2="430"/><text x="722.5" y="455" text-anchor="middle" font-size="12">25</text>
<line class="grid" x1="844.0" y1="115" x2="844.0" y2="430"/><text x="844.0" y="455" text-anchor="middle" font-size="12">30</text>
<line class="grid" x1="965.5" y1="115" x2="965.5" y2="430"/><text x="965.5" y="455" text-anchor="middle" font-size="12">35</text>
<line class="grid" x1="1087.0" y1="115" x2="1087.0" y2="430"/><text x="1087.0" y="455" text-anchor="middle" font-size="12">40</text>
<line class="grid" x1="1208.5" y1="115" x2="1208.5" y2="430"/><text x="1208.5" y="455" text-anchor="middle" font-size="12">45</text>
<line class="grid" x1="1330.0" y1="115" x2="1330.0" y2="430"/><text x="1330.0" y="455" text-anchor="middle" font-size="12">50</text>
<line class="grid" x1="115" y1="430.0" x2="1330" y2="430.0"/><text x="103" y="434.0" text-anchor="end" font-size="12">0</text>
<line class="grid" x1="115" y1="367.0" x2="1330" y2="367.0"/><text x="103" y="371.0" text-anchor="end" font-size="12">1,200</text>
<line class="grid" x1="115" y1="304.0" x2="1330" y2="304.0"/><text x="103" y="308.0" text-anchor="end" font-size="12">2,400</text>
<line class="grid" x1="115" y1="241.0" x2="1330" y2="241.0"/><text x="103" y="245.0" text-anchor="end" font-size="12">3,600</text>
<line class="grid" x1="115" y1="178.0" x2="1330" y2="178.0"/><text x="103" y="182.0" text-anchor="end" font-size="12">4,800</text>
<line class="grid" x1="115" y1="115.0" x2="1330" y2="115.0"/><text x="103" y="119.0" text-anchor="end" font-size="12">6,000</text>
<polyline points="115.0,430.0 139.3,429.6 163.6,429.2 187.9,428.6 212.2,427.9 236.5,427.1 260.8,426.2 285.1,425.2 309.4,424.1 333.7,422.9 358.0,421.6 382.3,420.2 406.6,418.7 430.9,417.0 455.2,415.3 479.5,413.5 503.8,411.5 528.1,409.3 552.4,406.8 576.7,404.1 601.0,401.1 625.3,397.9 649.6,394.4 673.9,390.6 698.2,386.5 722.5,382.2 746.8,377.7 771.1,372.8 795.4,367.7 819.7,362.4 844.0,356.8 868.3,350.9 892.6,344.5 916.9,337.7 941.2,330.4 965.5,322.6 989.8,314.4 1014.1,305.7 1038.4,296.5 1062.7,286.8 1087.0,276.7 1111.3,266.1 1135.6,255.0 1159.9,243.5 1184.2,231.4 1208.5,218.9 1232.8,206.0 1257.1,192.5 1281.4,178.6 1305.7,164.2 1330.0,149.4" fill="none" class="orange" stroke-width="4"/>
<polyline points="115.0,430.0 139.3,428.4 163.6,426.9 187.9,425.3 212.2,423.7 236.5,422.1 260.8,420.6 285.1,419.0 309.4,417.4 333.7,415.8 358.0,414.2 382.3,412.7 406.6,411.1 430.9,409.5 455.2,407.9 479.5,406.4 503.8,404.8 528.1,403.2 552.4,401.6 576.7,400.1 601.0,398.5 625.3,396.9 649.6,395.4 673.9,393.8 698.2,392.2 722.5,390.6 746.8,389.1 771.1,387.5 795.4,385.9 819.7,384.3 844.0,382.8 868.3,381.2 892.6,379.6 916.9,378.0 941.2,376.4 965.5,374.9 989.8,373.3 1014.1,371.7 1038.4,370.1 1062.7,368.6 1087.0,367.0 1111.3,365.4 1135.6,363.9 1159.9,362.3 1184.2,360.7 1208.5,359.1 1232.8,357.6 1257.1,356.0 1281.4,354.4 1305.7,352.8 1330.0,351.2" fill="none" class="green" stroke-width="4"/>
<text x="133" y="142" class="orange" font-size="15">● Vanilla</text><text x="235" y="142" class="green" font-size="15">● Steady XP</text>
<text x="28" y="272.5" transform="rotate(-90 28 272.5)" text-anchor="middle" font-size="14">Total XP from level 0</text>
<rect x="70" y="540" width="1290" height="410" rx="12" fill="#151d27"/>
<text x="700" y="573" text-anchor="middle" font-size="20" font-weight="600">XP needed to advance one level</text>
<line class="grid" x1="115.0" y1="585" x2="115.0" y2="900"/><text x="115.0" y="925" text-anchor="middle" font-size="12">0</text>
<line class="grid" x1="236.5" y1="585" x2="236.5" y2="900"/><text x="236.5" y="925" text-anchor="middle" font-size="12">5</text>
<line class="grid" x1="358.0" y1="585" x2="358.0" y2="900"/><text x="358.0" y="925" text-anchor="middle" font-size="12">10</text>
<line class="grid" x1="479.5" y1="585" x2="479.5" y2="900"/><text x="479.5" y="925" text-anchor="middle" font-size="12">15</text>
<line class="grid" x1="601.0" y1="585" x2="601.0" y2="900"/><text x="601.0" y="925" text-anchor="middle" font-size="12">20</text>
<line class="grid" x1="722.5" y1="585" x2="722.5" y2="900"/><text x="722.5" y="925" text-anchor="middle" font-size="12">25</text>
<line class="grid" x1="844.0" y1="585" x2="844.0" y2="900"/><text x="844.0" y="925" text-anchor="middle" font-size="12">30</text>
<line class="grid" x1="965.5" y1="585" x2="965.5" y2="900"/><text x="965.5" y="925" text-anchor="middle" font-size="12">35</text>
<line class="grid" x1="1087.0" y1="585" x2="1087.0" y2="900"/><text x="1087.0" y="925" text-anchor="middle" font-size="12">40</text>
<line class="grid" x1="1208.5" y1="585" x2="1208.5" y2="900"/><text x="1208.5" y="925" text-anchor="middle" font-size="12">45</text>
<line class="grid" x1="1330.0" y1="585" x2="1330.0" y2="900"/><text x="1330.0" y="925" text-anchor="middle" font-size="12">50</text>
<line class="grid" x1="115" y1="900.0" x2="1330" y2="900.0"/><text x="103" y="904.0" text-anchor="end" font-size="12">0</text>
<line class="grid" x1="115" y1="837.0" x2="1330" y2="837.0"/><text x="103" y="841.0" text-anchor="end" font-size="12">60</text>
<line class="grid" x1="115" y1="774.0" x2="1330" y2="774.0"/><text x="103" y="778.0" text-anchor="end" font-size="12">120</text>
<line class="grid" x1="115" y1="711.0" x2="1330" y2="711.0"/><text x="103" y="715.0" text-anchor="end" font-size="12">180</text>
<line class="grid" x1="115" y1="648.0" x2="1330" y2="648.0"/><text x="103" y="652.0" text-anchor="end" font-size="12">240</text>
<line class="grid" x1="115" y1="585.0" x2="1330" y2="585.0"/><text x="103" y="589.0" text-anchor="end" font-size="12">300</text>
<polyline points="115.0,892.6 139.3,890.5 163.6,888.5 187.9,886.4 212.2,884.2 236.5,882.1 260.8,880.0 285.1,878.0 309.4,875.9 333.7,873.8 358.0,871.6 382.3,869.5 406.6,867.5 430.9,865.4 455.2,863.2 479.5,861.1 503.8,855.9 528.1,850.6 552.4,845.4 576.7,840.1 601.0,834.9 625.3,829.6 649.6,824.4 673.9,819.1 698.2,813.9 722.5,808.6 746.8,803.4 771.1,798.1 795.4,792.9 819.7,787.6 844.0,782.4 868.3,773.0 892.6,763.5 916.9,754.0 941.2,744.6 965.5,735.1 989.8,725.7 1014.1,716.2 1038.4,706.8 1062.7,697.4 1087.0,687.9 1111.3,678.5 1135.6,669.0 1159.9,659.5 1184.2,650.1 1208.5,640.6 1232.8,631.2 1257.1,621.8 1281.4,612.3 1305.7,602.8 1330.0,593.4" fill="none" class="orange" stroke-width="4"/>
<polyline points="115.0,868.5 139.3,868.5 163.6,868.5 187.9,868.5 212.2,868.5 236.5,868.5 260.8,868.5 285.1,868.5 309.4,868.5 333.7,868.5 358.0,868.5 382.3,868.5 406.6,868.5 430.9,868.5 455.2,868.5 479.5,868.5 503.8,868.5 528.1,868.5 552.4,868.5 576.7,868.5 601.0,868.5 625.3,868.5 649.6,868.5 673.9,868.5 698.2,868.5 722.5,868.5 746.8,868.5 771.1,868.5 795.4,868.5 819.7,868.5 844.0,868.5 868.3,868.5 892.6,868.5 916.9,868.5 941.2,868.5 965.5,868.5 989.8,868.5 1014.1,868.5 1038.4,868.5 1062.7,868.5 1087.0,868.5 1111.3,868.5 1135.6,868.5 1159.9,868.5 1184.2,868.5 1208.5,868.5 1232.8,868.5 1257.1,868.5 1281.4,868.5 1305.7,868.5 1330.0,868.5" fill="none" class="green" stroke-width="4"/>
<text x="133" y="612" class="orange" font-size="15">● Vanilla</text><text x="235" y="612" class="green" font-size="15">● Steady XP</text>
<text x="28" y="742.5" transform="rotate(-90 28 742.5)" text-anchor="middle" font-size="14">XP for next level</text>
<text x="722" y="965" text-anchor="middle" font-size="15">Current level (0–50)</text>
<text x="970" y="270" font-size="15" fill="#e6edf3">Steady XP becomes cheaper overall at level 22</text>
<text x="500" y="745" font-size="15" fill="#e6edf3">Vanilla next-level cost passes 30 XP at level 12</text>
</svg>